<svg id="uuid-d89cc750-91ed-47ae-822a-86c6252fd85d" xmlns="http://www.w3.org/2000/svg" width="311.13" height="135.01" viewBox="0 0 311.13 135.01"><defs><style>.uuid-9820f3af-fd57-4ac4-9310-0b713bdd4448{fill:#2d2a26;}.uuid-9820f3af-fd57-4ac4-9310-0b713bdd4448,.uuid-45c8680a-bb14-47ff-9f44-bd2a1779a510,.uuid-894a3678-3841-4a94-b3f9-bc9d7b9a8394,.uuid-84b89f67-c4d0-4bf7-9f7d-4f9db012df78,.uuid-0b8a147a-316e-4805-a73e-41270c7fc947,.uuid-90474079-0a68-41d5-8d96-8fdf2911dbdd,.uuid-9c20ea48-a90a-4cf8-89cd-38c626be5c64{stroke-width:0px;}.uuid-45c8680a-bb14-47ff-9f44-bd2a1779a510{fill:#ffa400;}.uuid-894a3678-3841-4a94-b3f9-bc9d7b9a8394{fill:#9e8959;}.uuid-84b89f67-c4d0-4bf7-9f7d-4f9db012df78{fill:#ff6b00;}.uuid-0b8a147a-316e-4805-a73e-41270c7fc947{fill:#5e2a2b;}.uuid-90474079-0a68-41d5-8d96-8fdf2911dbdd{fill:#79242f;}.uuid-9c20ea48-a90a-4cf8-89cd-38c626be5c64{fill:#e1251b;}</style></defs><g id="uuid-40a824ba-3c74-4ebe-86ac-cd67766f2d7f"><g id="uuid-06936200-c65f-4c9e-96ba-aeeaf0c9bd08"><path class="uuid-9820f3af-fd57-4ac4-9310-0b713bdd4448" d="M12.33,119.26h3.66v15.14h-3.66v-2.2c-.49,1.47-2.32,2.56-4.76,2.56s-3.91-.73-5.37-2.2c-1.47-1.47-2.2-3.42-2.2-5.62s.73-4.15,2.2-5.62,3.3-2.32,5.37-2.32,4.27,1.1,4.88,2.56v-2.2l-.12-.12ZM11.23,130.12c.85-.85,1.34-1.95,1.34-3.3s-.49-2.44-1.34-3.3-1.95-1.34-3.3-1.34-2.32.49-3.17,1.34-1.22,1.95-1.22,3.3.37,2.44,1.22,3.3,1.95,1.34,3.17,1.34,2.44-.49,3.3-1.34Z"></path><path class="uuid-9820f3af-fd57-4ac4-9310-0b713bdd4448" d="M20.64,134.4v-11.84h-2.44v-3.3h2.44v-.73c0-2.32.49-3.54,1.71-4.52.85-.61,2.08-.98,3.79-.98s1.1,0,1.59,0v3.05c-.24,0-.73-.12-1.34-.12-1.34,0-1.95.61-1.95,2.08v.98h2.81v3.3h-2.81v11.84h-3.66l-.12.24Z"></path><path class="uuid-9820f3af-fd57-4ac4-9310-0b713bdd4448" d="M29.55,134.4v-15.14h3.54v2.2c.73-1.59,2.32-2.56,4.52-2.56s.73,0,1.1,0v3.42c-.49,0-.98-.12-1.47-.12-2.44,0-4.03,1.59-4.03,4.03v7.94h-3.54l-.12.24Z"></path><path class="uuid-9820f3af-fd57-4ac4-9310-0b713bdd4448" d="M40.78,115.47c0-1.22.98-2.08,2.2-2.08s2.08.98,2.08,2.08-.98,2.08-2.08,2.08-2.2-.98-2.2-2.08ZM41.15,134.4v-15.14h3.66v15.14h-3.66Z"></path><path class="uuid-9820f3af-fd57-4ac4-9310-0b713bdd4448" d="M61.54,121.45l-2.2,2.32c-1.1-1.1-2.32-1.59-3.79-1.59s-2.44.49-3.3,1.34-1.34,2.08-1.34,3.42.49,2.44,1.34,3.42c.85.85,2.08,1.34,3.3,1.34s2.81-.49,3.79-1.59l2.2,2.32c-1.59,1.71-3.66,2.56-6.11,2.56s-4.27-.73-5.86-2.32c-1.59-1.47-2.32-3.42-2.32-5.74s.73-4.15,2.32-5.74c1.59-1.47,3.54-2.32,5.86-2.32s4.4.85,6.11,2.56h0Z"></path><path class="uuid-9820f3af-fd57-4ac4-9310-0b713bdd4448" d="M75.22,119.26h3.54v15.14h-3.54v-2.2c-.49,1.47-2.32,2.56-4.76,2.56s-3.91-.73-5.37-2.2c-1.47-1.47-2.2-3.42-2.2-5.62s.73-4.15,2.2-5.62,3.3-2.32,5.37-2.32,4.27,1.1,4.76,2.56v-2.32ZM74.12,130.12c.85-.85,1.34-1.95,1.34-3.3s-.49-2.44-1.34-3.3-1.95-1.34-3.3-1.34-2.32.49-3.17,1.34-1.22,1.95-1.22,3.3.37,2.44,1.22,3.3,1.95,1.34,3.17,1.34,2.44-.49,3.3-1.34Z"></path><path class="uuid-9820f3af-fd57-4ac4-9310-0b713bdd4448" d="M103.79,121.45l-2.2,2.32c-1.1-1.1-2.32-1.59-3.79-1.59s-2.44.49-3.3,1.34-1.34,2.08-1.34,3.42.49,2.44,1.34,3.42c.85.85,2.08,1.34,3.3,1.34s2.81-.49,3.79-1.59l2.2,2.32c-1.59,1.71-3.66,2.56-6.11,2.56s-4.27-.73-5.86-2.32c-1.59-1.47-2.32-3.42-2.32-5.74s.73-4.15,2.32-5.74c1.59-1.47,3.54-2.32,5.86-2.32s4.4.85,6.11,2.56h0Z"></path><path class="uuid-9820f3af-fd57-4ac4-9310-0b713bdd4448" d="M117.59,119.26h3.54v15.14h-3.54v-2.2c-.49,1.47-2.32,2.56-4.76,2.56s-3.91-.73-5.37-2.2-2.2-3.42-2.2-5.62.73-4.15,2.2-5.62c1.47-1.47,3.3-2.32,5.37-2.32s4.27,1.1,4.76,2.56v-2.32ZM116.49,130.12c.85-.85,1.34-1.95,1.34-3.3s-.49-2.44-1.34-3.3-1.95-1.34-3.3-1.34-2.32.49-3.17,1.34-1.22,1.95-1.22,3.3.37,2.44,1.22,3.3,1.95,1.34,3.17,1.34,2.44-.49,3.3-1.34Z"></path><path class="uuid-9820f3af-fd57-4ac4-9310-0b713bdd4448" d="M124.18,134.4v-15.14h3.54v2.2c.73-1.59,2.32-2.56,4.52-2.56s.73,0,1.1,0v3.42c-.49,0-.98-.12-1.47-.12-2.44,0-4.03,1.59-4.03,4.03v7.94h-3.54l-.12.24Z"></path><path class="uuid-9820f3af-fd57-4ac4-9310-0b713bdd4448" d="M134.32,126.83c0-2.44.73-4.27,2.2-5.74,1.47-1.47,3.42-2.2,5.74-2.2s4.03.73,5.37,2.2c1.34,1.47,2.08,3.3,2.08,5.37s0,.85,0,1.22h-11.72c0,2.44,1.95,3.91,4.52,3.91s2.93-.61,4.03-1.71l2.2,2.08c-1.71,1.83-3.79,2.69-6.35,2.69s-4.27-.73-5.74-2.08-2.2-3.3-2.2-5.62h0l-.12-.12ZM146.04,125.24c0-.85-.37-1.71-1.1-2.32-.73-.61-1.59-.98-2.69-.98s-2.08.37-2.93.98-1.22,1.47-1.34,2.32h8.06,0Z"></path><path class="uuid-9820f3af-fd57-4ac4-9310-0b713bdd4448" d="M151.41,126.83c0-2.44.73-4.27,2.2-5.74s3.42-2.2,5.74-2.2,4.03.73,5.37,2.2c1.34,1.47,2.08,3.3,2.08,5.37s0,.85,0,1.22h-11.72c.12,2.44,1.95,3.91,4.52,3.91s2.93-.61,4.03-1.71l2.2,2.08c-1.71,1.83-3.79,2.69-6.35,2.69s-4.27-.73-5.74-2.08c-1.47-1.47-2.2-3.3-2.2-5.62h0l-.12-.12ZM163.14,125.24c0-.85-.37-1.71-1.1-2.32-.73-.61-1.59-.98-2.69-.98s-2.08.37-2.93.98-1.22,1.47-1.34,2.32h8.06,0Z"></path><path class="uuid-9820f3af-fd57-4ac4-9310-0b713bdd4448" d="M169.12,134.4v-15.14h3.54v2.2c.73-1.59,2.32-2.56,4.52-2.56s.73,0,1.1,0v3.42c-.49,0-.98-.12-1.47-.12-2.44,0-4.03,1.59-4.03,4.03v7.94h-3.54l-.12.24Z"></path><path class="uuid-9820f3af-fd57-4ac4-9310-0b713bdd4448" d="M188.66,134.4v-15.14h3.54v2.2c.73-1.47,2.44-2.44,4.64-2.44,3.54,0,5.74,2.32,5.74,6.11v9.4h-3.54v-8.79c0-2.08-1.22-3.42-3.17-3.42s-3.54,1.47-3.54,3.54v8.67h-3.54l-.12-.12Z"></path><path class="uuid-9820f3af-fd57-4ac4-9310-0b713bdd4448" d="M204.9,126.83c0-2.44.73-4.27,2.2-5.74s3.42-2.2,5.74-2.2,4.03.73,5.37,2.2c1.34,1.47,2.08,3.3,2.08,5.37s0,.85,0,1.22h-11.72c.12,2.44,1.95,3.91,4.52,3.91s2.93-.61,4.03-1.71l2.2,2.08c-1.71,1.83-3.79,2.69-6.35,2.69s-4.27-.73-5.74-2.08c-1.47-1.47-2.2-3.3-2.2-5.62h0l-.12-.12ZM216.62,125.24c0-.85-.37-1.71-1.1-2.32-.73-.61-1.59-.98-2.69-.98s-2.08.37-2.93.98-1.22,1.47-1.34,2.32h8.06,0Z"></path><path class="uuid-9820f3af-fd57-4ac4-9310-0b713bdd4448" d="M223.58,122.55h-1.95v-3.3h1.95v-5.74h3.54v5.74h3.3v3.3h-3.3v6.72c0,1.59.61,2.2,1.95,2.2s.85,0,1.22,0v3.17c-.49,0-1.1.24-1.83.24-3.3,0-4.88-1.71-4.88-5.13v-7.08h0v-.12Z"></path><path class="uuid-9820f3af-fd57-4ac4-9310-0b713bdd4448" d="M236.4,134.4l-5.01-15.14h3.42l3.17,9.4,3.05-9.4h2.69l3.05,9.4,3.17-9.4h3.42l-5.01,15.14h-2.81l-3.17-9.52-3.17,9.52h-2.81,0Z"></path><path class="uuid-9820f3af-fd57-4ac4-9310-0b713bdd4448" d="M253.5,126.83c0-2.2.85-4.15,2.44-5.74,1.59-1.47,3.54-2.32,5.86-2.32s4.27.73,5.86,2.32c1.59,1.47,2.44,3.42,2.44,5.74s-.85,4.15-2.44,5.74-3.54,2.32-5.86,2.32-4.27-.73-5.86-2.32c-1.59-1.47-2.44-3.42-2.44-5.74ZM265.1,130.25c.85-.98,1.34-2.08,1.34-3.42s-.49-2.44-1.34-3.42c-.85-.98-1.95-1.34-3.3-1.34s-2.44.49-3.42,1.34c-.85.85-1.34,1.95-1.34,3.42s.49,2.44,1.34,3.42c.85.85,1.95,1.34,3.42,1.34s2.44-.49,3.3-1.34Z"></path><path class="uuid-9820f3af-fd57-4ac4-9310-0b713bdd4448" d="M272.54,134.4v-15.14h3.54v2.2c.73-1.59,2.32-2.56,4.52-2.56s.73,0,1.1,0v3.42c-.49,0-.98-.12-1.47-.12-2.44,0-4.03,1.59-4.03,4.03v7.94h-3.54l-.12.24Z"></path><path class="uuid-9820f3af-fd57-4ac4-9310-0b713bdd4448" d="M284.27,134.4v-20.88h3.54v12.21l5.62-6.35h4.15l-5.86,6.72,6.59,8.3h-4.03l-4.76-6.11-1.47,1.71v4.4h-3.79Z"></path><path class="uuid-9820f3af-fd57-4ac4-9310-0b713bdd4448" d="M300.87,129.76c.73,1.1,2.2,1.95,4.03,1.95s2.69-.73,2.69-1.59-.37-.98-.85-1.22c-.37-.24-.98-.37-1.34-.61-.49-.12-1.34-.37-1.83-.61-2.44-.85-3.66-2.08-3.66-4.27s.49-2.44,1.47-3.3c1.1-.85,2.32-1.22,3.79-1.22,2.08,0,3.79.73,4.88,2.2l-1.95,2.08c-.61-.85-1.71-1.22-2.93-1.22s-1.83.49-1.83,1.34.24.73.73,1.1c.24.12.85.37,1.22.49.49,0,1.34.37,1.83.61,2.81.98,4.03,2.32,4.03,4.52s-2.08,4.76-6.23,4.76-5.25-1.22-6.23-3.05l2.32-1.95h-.12Z"></path><path class="uuid-0b8a147a-316e-4805-a73e-41270c7fc947" d="M56.07,70.4c-12.5-1.1-22.4-11.6-22.4-24.5s9.9-23.4,22.4-24.5l8.3-8.7L56.07,0C31.87,1.2,12.27,21.4,12.27,45.8s19.4,44.8,43.8,45.9l11.9-11.3-11.9-10.1v.1Z"></path><path class="uuid-90474079-0a68-41d5-8d96-8fdf2911dbdd" d="M99.77,1.3h-13.8c-1.4,0-2.5,1.1-2.5,2.5v3.8C76.07,2.7,67.27,0,57.77,0h-1.7v21.4c.7,0,1.4-.1,2.1-.1,13.6,0,24.6,11,24.6,24.6s-11,24.6-24.6,24.6-1.4,0-2.1,0v21.4h2.1c9.3,0,18-2.8,25.3-7.6v3.8c0,1.4,1.1,2.5,2.5,2.5h13.8l4-2.4V5.3l-4-4h0Z"></path><path class="uuid-9c20ea48-a90a-4cf8-89cd-38c626be5c64" d="M143.57,66.6c-1.6-.9-3-2-4.4-3.3-4.7-4.6-7-10.4-7-17.3s2.3-12.7,7-17.3c1.4-1.3,2.8-2.5,4.4-3.4l10.5-7.4-4.9-13.9-5.6-2.5c-8.1,2-15.4,5.8-21.7,11.7-9.3,8.7-14.1,19.6-14.1,32.8s4.7,24.1,14.1,32.8c6.3,5.8,13.5,9.7,21.7,11.6l11.6-7-11.6-16.7v-.1Z"></path><path class="uuid-9c20ea48-a90a-4cf8-89cd-38c626be5c64" d="M105.27,1.3h-5.5v89.3h5.5c1.4,0,2.5-1.1,2.5-2.5V3.8c0-1.4-1.1-2.5-2.5-2.5Z"></path><path class="uuid-84b89f67-c4d0-4bf7-9f7d-4f9db012df78" d="M175.37,29.6c.9.9,2.4,1,3.4.1l8.6-7.2,2.5-5.6-2.5-5.6c-8.6-7.2-19.4-11.3-30.9-11.3s-8.8.5-12.9,1.5v23.8c3.8-2.3,8.1-3.5,12.9-3.5,7.3,0,13.6,2.6,18.9,7.8h0Z"></path><path class="uuid-84b89f67-c4d0-4bf7-9f7d-4f9db012df78" d="M187.37,80.5l2.5-5.6-2.5-5.6-8.6-7.2c-1-.8-2.4-.8-3.4.2-5.3,5.2-11.6,7.8-18.9,7.8s-9.1-1.2-12.9-3.4v23.8c4.1,1,8.4,1.5,12.9,1.5,11.5,0,22.3-4.2,30.9-11.3v-.2Z"></path><path class="uuid-45c8680a-bb14-47ff-9f44-bd2a1779a510" d="M191.77,76.4c1-1.1.9-2.7-.2-3.7l-4.1-3.5v11.2c1.5-1.3,3-2.6,4.4-4.1h0l-.1.1Z"></path><path class="uuid-45c8680a-bb14-47ff-9f44-bd2a1779a510" d="M187.37,11.3v11.2l4.1-3.5c1.1-.9,1.2-2.6.2-3.7-1.4-1.5-2.8-2.8-4.4-4.1h0l.1.1Z"></path><path class="uuid-45c8680a-bb14-47ff-9f44-bd2a1779a510" d="M231.17,23l-16.2-20.7c-.5-.6-1.2-1-2-1h-18c-1.4,0-2.5,1.1-2.5,2.5v84.3c0,1.4,1.1,2.5,2.5,2.5h18.3c1.4,0,2.5-1.1,2.5-2.5v-47.3l15.4,19.5,8.3-10.6s-8.3-26.7-8.3-26.7Z"></path><path class="uuid-894a3678-3841-4a94-b3f9-bc9d7b9a8394" d="M272.37,1.3h-18.3c-1.4,0-2.5,1.1-2.5,2.5v45.4l-20.4-26.2v37.3l23.1,29.3c.5.6,1.2,1,2,1h16.1c1.4,0,2.5-1.1,2.5-2.5V3.8c0-1.4-1.1-2.5-2.5-2.5Z"></path></g></g></svg>